<svg width="85" height="68" viewBox="0 0 85 68" fill="none" xmlns="http://www.w3.org/2000/svg">
<rect width="85" height="68" rx="25" fill="#00252A"/>
<path d="M39.0219 36.2938L44.8957 31.0874L45.1627 30.8204H26.4733V27.6166C27.0073 22.0631 30.9677 20.2298 32.8811 20.0073H45.9637V27.75H51.437V14H33.9491C32.6675 14.1068 31.0122 14.6675 30.3447 14.9345C26.2864 16.6432 23.9369 19.7403 23.2694 21.0753C21.7743 22.9976 21.1335 27.3051 21 29.2185V36.0268L39.0219 36.2938Z" fill="#DBD9FF"/>
<path d="M45.1631 30.8205L39.2893 36.0268L39.0224 36.2938H57.7117V39.4977C57.1778 45.0511 53.2174 46.8845 51.3039 47.107H38.2214V39.3642H32.7481V53.1143H50.236C51.5175 53.0075 53.1729 52.4468 53.8404 52.1798C57.8986 50.471 60.2482 47.3739 60.9156 46.039C62.4108 44.1167 63.0516 39.8092 63.1851 37.8958V31.0875L45.1631 30.8205Z" fill="#DBD9FF"/>
</svg>
